<svg width="100%" viewBox="0 0 680 1020" role="img" xmlns="http://www.w3.org/2000/svg" font-family="-apple-system, system-ui, 'Segoe UI', sans-serif">
  <title>Synthr — architecture</title>
  <desc>How frontend, backend, and any engineer use the Synthr gateway across providers.</desc>
  <defs>
    <marker id="arrow" viewBox="0 0 10 10" refX="8" refY="5" markerWidth="6" markerHeight="6" orient="auto-start-reverse">
      <path d="M2 1L8 5L2 9" fill="none" stroke="#73726c" stroke-width="1.5" stroke-linecap="round" stroke-linejoin="round"/>
    </marker>
    <style>
      .sec  { fill:#3d3d3a; opacity:.55; font-size:12px; text-anchor:middle; letter-spacing:.04em; }
      .cap  { fill:#3d3d3a; opacity:.75; font-size:12px; text-anchor:middle; }
      rect  { rx:8; }
      .client { fill:#eeedfe; stroke:#534ab7; stroke-width:.6; }
      .sdk    { fill:#e1f5ee; stroke:#0f6e56; stroke-width:.6; }
      .gw     { fill:#e6f1fb; stroke:#185fa5; stroke-width:1; }
      .mod    { fill:#e3f4ee; stroke:#0f6e56; stroke-width:.6; }
      .bar    { fill:#f1efe8; stroke:#5f5e5a; stroke-width:.6; }
      .cfg    { fill:#faeeda; stroke:#854f0b; stroke-width:.6; }
      .prov   { fill:#faece7; stroke:#993c1d; stroke-width:.6; }
      .uniq   { fill:#eaf3de; stroke:#3b6d11; stroke-width:.6; }
      .t   { font-size:14px; font-weight:600; text-anchor:middle; }
      .s   { font-size:12px; text-anchor:middle; }
      .ct{fill:#3c3489;} .cs{fill:#534ab7;}
      .st{fill:#085041;} .ss{fill:#0f6e56;}
      .gt{fill:#0c447c;} .gs{fill:#185fa5;}
      .bt{fill:#444441;}
      .cft{fill:#633806;} .cfs{fill:#854f0b;}
      .pt{fill:#712b13;} .ps{fill:#993c1d;}
      .ut{fill:#27500a;} .us{fill:#3b6d11;}
      line { stroke:#73726c; stroke-width:1.5; }
    </style>
  </defs>

  <!-- ENGINEERS -->
  <text class="sec" x="340" y="28">ENGINEERS · any project, any stack</text>
  <rect class="client" x="30"  y="40" width="160" height="56"/>
  <text class="t ct" x="110" y="64">Frontend dev</text><text class="s cs" x="110" y="82">React · Vue · JS</text>
  <rect class="client" x="260" y="40" width="160" height="56"/>
  <text class="t ct" x="340" y="64">Backend dev</text><text class="s cs" x="340" y="82">Python · Node · Go</text>
  <rect class="client" x="490" y="40" width="160" height="56"/>
  <text class="t ct" x="570" y="64">Any engineer</text><text class="s cs" x="570" y="82">CLI · mobile · other</text>

  <!-- SDK ROW -->
  <text class="sec" x="340" y="128">ONE API · same for everyone</text>
  <rect class="sdk" x="30"  y="138" width="160" height="44"/>
  <text class="t st" x="110" y="158">synthr (pip)</text><text class="s ss" x="110" y="174">Python SDK</text>
  <rect class="sdk" x="260" y="138" width="160" height="44"/>
  <text class="t st" x="340" y="158">synthr-sdk (npm)</text><text class="s ss" x="340" y="174">TypeScript SDK</text>
  <rect class="sdk" x="490" y="138" width="160" height="44"/>
  <text class="t st" x="570" y="158">REST / curl</text><text class="s ss" x="570" y="174">any language</text>

  <!-- arrows engineers -> sdk -->
  <line x1="110" y1="96" x2="110" y2="136" marker-end="url(#arrow)"/>
  <line x1="340" y1="96" x2="340" y2="136" marker-end="url(#arrow)"/>
  <line x1="570" y1="96" x2="570" y2="136" marker-end="url(#arrow)"/>
  <!-- arrows sdk -> gateway (X-Project-Key) -->
  <line x1="110" y1="182" x2="250" y2="260" marker-end="url(#arrow)"/>
  <line x1="340" y1="182" x2="340" y2="260" marker-end="url(#arrow)"/>
  <line x1="570" y1="182" x2="430" y2="260" marker-end="url(#arrow)"/>
  <text class="cap" x="356" y="226">X-Project-Key</text>

  <!-- GATEWAY -->
  <rect class="gw" x="30" y="262" width="620" height="420" rx="14"/>
  <text class="t gt" x="340" y="292">Synthr Gateway</text>
  <text class="s gs" x="340" y="310">Docker container — one command to start</text>

  <!-- modules row 1 -->
  <rect class="mod" x="52"  y="326" width="175" height="66"/>
  <text class="t st" x="139" y="350">Auth &amp; project keys</text>
  <text class="s ss" x="139" y="368">secret + public keys</text><text class="s ss" x="139" y="382">real keys never leave</text>
  <rect class="mod" x="253" y="326" width="175" height="66"/>
  <text class="t st" x="340" y="350">Cache</text>
  <text class="s ss" x="340" y="368">exact + TF-IDF semantic</text><text class="s ss" x="340" y="382">repeat prompt = $0</text>
  <rect class="mod" x="454" y="326" width="175" height="66"/>
  <text class="t st" x="541" y="350">Rate limiter</text>
  <text class="s ss" x="541" y="368">per user, per feature</text><text class="s ss" x="541" y="382">day · week · month</text>

  <!-- modules row 2 -->
  <rect class="mod" x="52"  y="412" width="175" height="66"/>
  <text class="t st" x="139" y="436">Guardrails</text>
  <text class="s ss" x="139" y="454">PII · keyword blocks</text><text class="s ss" x="139" y="468">+ output redaction</text>
  <rect class="mod" x="253" y="412" width="175" height="66"/>
  <text class="t st" x="340" y="436">Token optimizer</text>
  <text class="s ss" x="340" y="454">compresses prompts</text><text class="s ss" x="340" y="468">before they're sent</text>
  <rect class="mod" x="454" y="412" width="175" height="66"/>
  <text class="t st" x="541" y="436">Usage dashboard</text>
  <text class="s ss" x="541" y="454">cost · cache hits</text><text class="s ss" x="541" y="468">· guardrail blocks</text>

  <!-- router bar -->
  <text class="cap" x="340" y="506">Provider router — automatic fallback chain</text>
  <rect class="bar" x="52" y="516" width="576" height="44"/>
  <text class="t bt" x="340" y="543">Provider abstraction layer</text>

  <!-- config -->
  <text class="cap" x="340" y="584">Reads synthr.config.yaml — one file per deployment</text>
  <rect class="cfg" x="160" y="594" width="360" height="44"/>
  <text class="t cft" x="340" y="614">synthr.config.yaml</text>
  <text class="s cfs" x="340" y="630">providers · limits · guardrails · cache · per-feature</text>

  <!-- arrows gateway -> providers -->
  <line x1="150" y1="660" x2="107" y2="740" marker-end="url(#arrow)"/>
  <line x1="280" y1="660" x2="257" y2="740" marker-end="url(#arrow)"/>
  <line x1="400" y1="660" x2="407" y2="740" marker-end="url(#arrow)"/>
  <line x1="530" y1="660" x2="557" y2="740" marker-end="url(#arrow)"/>

  <!-- PROVIDERS -->
  <text class="sec" x="340" y="700">AI PROVIDERS · chosen per feature in config</text>
  <rect class="prov" x="42"  y="710" width="130" height="44"/>
  <text class="t pt" x="107" y="730">Gemini</text><text class="s ps" x="107" y="746">cloud</text>
  <rect class="prov" x="192" y="710" width="130" height="44"/>
  <text class="t pt" x="257" y="730">OpenAI · Grok</text><text class="s ps" x="257" y="746">cloud</text>
  <rect class="prov" x="342" y="710" width="130" height="44"/>
  <text class="t pt" x="407" y="730">Groq</text><text class="s ps" x="407" y="746">cloud · fast</text>
  <rect class="prov" x="492" y="710" width="130" height="44"/>
  <text class="t pt" x="557" y="730">Ollama · rembg</text><text class="s ps" x="557" y="746">local</text>

  <!-- WHAT MAKES IT UNIQUE -->
  <text class="sec" x="340" y="796">WHAT MAKES IT UNIQUE</text>
  <rect class="uniq" x="30"  y="808" width="290" height="56"/>
  <text class="t ut" x="175" y="830">Zero setup per project</text>
  <text class="s us" x="175" y="848">one container — every project shares it</text>
  <rect class="uniq" x="360" y="808" width="290" height="56"/>
  <text class="t ut" x="505" y="830">Provider-agnostic</text>
  <text class="s us" x="505" y="848">swap providers in config, zero code change</text>
  <rect class="uniq" x="30"  y="878" width="290" height="56"/>
  <text class="t ut" x="175" y="900">Smart cache + cost control</text>
  <text class="s us" x="175" y="918">same prompt never pays twice</text>
  <rect class="uniq" x="360" y="878" width="290" height="56"/>
  <text class="t ut" x="505" y="900">Guardrails built-in</text>
  <text class="s us" x="505" y="918">PII in/out, rate limits — no code</text>
  <rect class="uniq" x="160" y="948" width="360" height="44"/>
  <text class="t ut" x="340" y="968">Free &amp; self-hosted</text>
  <text class="s us" x="340" y="984">Synthr is free — bring any provider, cloud or local</text>
</svg>
